<?xml version="1.0" encoding="UTF-8" standalone="no"?>
<svg width="512px" height="512px" viewBox="0 0 512 512" version="1.1" xmlns="http://www.w3.org/2000/svg" xmlns:xlink="http://www.w3.org/1999/xlink" xmlns:sketch="http://www.bohemiancoding.com/sketch/ns">
    <!-- Generator: Sketch 3.3.3 (12081) - http://www.bohemiancoding.com/sketch -->
    <title>SVG pnk Mail</title>
    <desc>Created with Sketch.</desc>
    <defs></defs>
    <g id="Page-1" stroke="none" stroke-width="1" fill="none" fill-rule="evenodd" sketch:type="MSPage">
        <g id="SVG-Mail" sketch:type="MSLayerGroup" fill="#EF4F8E">
            <path d="M256,0 C114.615,0 0,114.615 0,256 C0,397.385 114.615,512 256,512 C397.385,512 512,397.385 512,256 C512,114.615 397.385,0 256,0 L256,0 Z M128,128 L384,128 C388.568,128 393.002,128.981 397.072,130.831 L256,295.415 L114.928,130.83 C118.998,128.982 123.431,128 128,128 L128,128 Z M96,352 L96,160 C96,159.33 96.028,158.664 96.07,158 L189.902,267.471 L97.103,360.27 C96.381,357.602 96,354.827 96,352 L96,352 Z M384,384 L128,384 C125.173,384 122.399,383.619 119.73,382.896 L210.789,291.835 L256,344.586 L301.213,291.839 L392.27,382.899 C389.6,383.619 386.826,384 384,384 L384,384 Z M416,352 C416,354.827 415.619,357.6 414.896,360.27 L322.095,267.471 L415.93,158 C415.973,158.664 416,159.33 416,160 L416,352 L416,352 Z" id="Shape" sketch:type="MSShapeGroup"></path>
        </g>
    </g>
</svg>