<?xml version="1.0" encoding="UTF-8" standalone="no"?>
<svg width="98px" height="98px" viewBox="0 0 98 98" version="1.1" xmlns="http://www.w3.org/2000/svg" xmlns:xlink="http://www.w3.org/1999/xlink" xmlns:sketch="http://www.bohemiancoding.com/sketch/ns">
    <!-- Generator: Sketch 3.3.3 (12081) - http://www.bohemiancoding.com/sketch -->
    <title>SVG Behance</title>
    <desc>Created with Sketch.</desc>
    <defs></defs>
    <g id="Page-1" stroke="none" stroke-width="1" fill="none" fill-rule="evenodd" sketch:type="MSPage">
        <g id="SVG-Behance" sketch:type="MSLayerGroup" fill="#EF4F8E">
            <g id="Group" sketch:type="MSShapeGroup">
                <path d="M39.337,38.729 C39.337,34.118 36.2,34.118 36.2,34.118 L34.539,34.118 L23.294,34.118 L23.294,44.012 L35.4,44.012 C37.492,44.011 39.337,43.342 39.337,38.729 L39.337,38.729 Z" id="Shape"></path>
                <path d="M36.201,50.846 L23.294,50.846 L23.294,62.696 L35.605,62.696 C37.457,62.643 40.875,62.063 40.875,56.936 C40.875,50.784 36.201,50.846 36.201,50.846 L36.201,50.846 Z" id="Shape"></path>
                <path d="M69.243,44.011 C62.394,44.011 61.439,50.846 61.439,50.846 L76.004,50.846 C76.005,50.846 76.092,44.011 69.243,44.011 L69.243,44.011 Z" id="Shape"></path>
                <path d="M48.875,0 C21.882,0 0,21.883 0,48.875 C0,75.867 21.882,97.75 48.875,97.75 C75.868,97.75 97.75,75.867 97.75,48.875 C97.75,21.883 75.868,0 48.875,0 L48.875,0 Z M59.531,28.848 L77.825,28.848 L77.825,34.308 L59.531,34.308 L59.531,28.848 L59.531,28.848 Z M50.285,57.486 C50.285,71.019 36.201,70.574 36.201,70.574 L23.294,70.574 L22.915,70.574 L13.128,70.574 L13.128,26.236 L22.915,26.236 L23.294,26.236 L36.2,26.236 C43.212,26.236 48.747,30.107 48.747,38.041 C48.747,45.976 41.981,46.479 41.981,46.479 C50.9,46.479 50.285,57.486 50.285,57.486 L50.285,57.486 Z M69.33,64.479 C76.7,64.479 76.439,59.709 76.439,59.709 L84.242,59.709 C84.242,72.368 69.07,71.501 69.07,71.501 C50.863,71.501 52.034,54.551 52.034,54.551 C52.034,54.551 52.02,37.517 69.068,37.517 C87.015,37.517 84.502,56.762 84.502,56.762 L61.527,56.762 C61.527,65.001 69.33,64.479 69.33,64.479 L69.33,64.479 Z" id="Shape"></path>
            </g>
        </g>
    </g>
</svg>