<?xml version="1.0" encoding="UTF-8" standalone="no"?>
<svg width="512px" height="512px" viewBox="0 0 512 512" version="1.1" xmlns="http://www.w3.org/2000/svg" xmlns:xlink="http://www.w3.org/1999/xlink" xmlns:sketch="http://www.bohemiancoding.com/sketch/ns">
    <!-- Generator: Sketch 3.3.3 (12081) - http://www.bohemiancoding.com/sketch -->
    <title>SVG Twitter</title>
    <desc>Created with Sketch.</desc>
    <defs></defs>
    <g id="Page-1" stroke="none" stroke-width="1" fill="none" fill-rule="evenodd" sketch:type="MSPage">
        <g id="SVG-Twitter" sketch:type="MSLayerGroup" fill="#EF4F8E">
            <path d="M256,0 C114.615,0 0,114.615 0,256 C0,397.385 114.615,512 256,512 C397.385,512 512,397.385 512,256 C512,114.615 397.385,0 256,0 L256,0 Z M403.121,180.544 C403.267,183.798 403.342,187.072 403.342,190.363 C403.342,290.674 326.988,406.345 187.363,406.345 C144.495,406.345 104.595,393.777 71,372.239 C76.938,372.941 82.981,373.301 89.108,373.301 C124.673,373.301 157.403,361.163 183.383,340.805 C150.166,340.194 122.133,318.243 112.471,288.088 C117.108,288.973 121.863,289.449 126.754,289.449 C133.677,289.449 140.383,288.521 146.753,286.787 C112.027,279.81 85.86,249.131 85.86,212.353 C85.86,212.033 85.86,211.714 85.868,211.398 C96.103,217.083 107.807,220.498 120.25,220.892 C99.88,207.281 86.48,184.046 86.48,157.708 C86.48,143.797 90.224,130.756 96.758,119.546 C134.197,165.473 190.132,195.692 253.22,198.86 C251.926,193.301 251.255,187.509 251.255,181.558 C251.255,139.638 285.245,105.652 327.164,105.652 C348.996,105.652 368.726,114.87 382.572,129.622 C399.863,126.218 416.109,119.901 430.779,111.202 C425.111,128.929 413.074,143.805 397.402,153.199 C412.757,151.365 427.386,147.283 441,141.247 C430.824,156.471 417.955,169.84 403.121,180.544 L403.121,180.544 Z" id="Shape" sketch:type="MSShapeGroup"></path>
        </g>
    </g>
</svg>